<svg xmlns="http://www.w3.org/2000/svg" version="1.1" xmlns:xlink="http://www.w3.org/1999/xlink" xmlns:svgjs="http://svgjs.dev/svgjs" width="1500" height="1687" viewBox="0 0 1500 1687"><g transform="matrix(1,0,0,1,2.2737367544323206e-13,0)"><svg viewBox="0 0 320 360" data-background-color="#ffffff" preserveAspectRatio="xMidYMid meet" height="1687" width="1500" xmlns="http://www.w3.org/2000/svg" xmlns:xlink="http://www.w3.org/1999/xlink"><g id="tight-bounds" transform="matrix(1,0,0,1,-5.684341886080802e-14,0)"><svg viewBox="0 0 320 360" height="360" width="320"><g><svg></svg></g><g><svg viewBox="0 0 320 360" height="360" width="320"><g><path d="M85.508 32.884c0-1.117 0.558-2.233 1.675-2.233 1.117 0 2.233 0.558 2.234 2.233 0.558 0 1.675 0 2.233-0.558 2.233 0 4.467-0.558 6.141 0 1.675 0.558 2.792 0.558 4.467 1.117 1.675 0.558 2.792 0 3.908-0.559 2.233-0.558 3.908-1.675 6.141-2.233 1.117-0.558 1.675-0.558 2.792-0.558 1.117-0.558 2.233-0.558 3.908-1.117 2.792-0.558 5.583-1.117 7.817-2.233 2.233-1.117 4.467-1.117 6.699-1.675 1.117 0 1.675-0.558 2.792-1.117 0.558 0 0.558-0.558 1.116-1.116 1.117-0.558 1.675-1.117 2.792-0.559 0.558 0.558 1.675 0.558 2.233 0h0.559c3.35 0 6.7-0.558 10.608 0 0.558 0 1.117 0 1.116 0 1.675-1.117 3.908-1.117 6.142-1.116 0.558 0 1.675 0 2.233 0h0.558c2.233 0 4.467 0 6.142 0.558 1.675 0 2.792 0.558 4.466 1.117 1.675 0 2.792 0 4.467 0.558 1.117 0 2.233 0 3.35 0 0.558 0 1.117 0 1.116 0 2.233 0.558 4.467 0.558 6.7 0.558 1.675 0.558 3.35 1.117 5.583 1.117 0.558 0 1.117 0 1.675 0 0.558 0 1.117 0.558 1.675 0.558l0.558 0.559c2.233 0 3.908 1.117 6.142 1.116 0.558 0 1.675 0 2.233 0.559 1.675 1.117 3.908 1.675 6.141 1.675 1.117 0 1.675 0.558 2.234 1.116 1.675 0.558 2.792 1.117 4.466 1.675 1.117 0.558 2.233 0 3.35 0.558 1.675 0.558 3.908 1.117 5.583 2.792 1.117 1.117 2.233 1.117 3.908 2.233 0.558 0 1.117 0.558 1.675 1.117 1.675 1.117 3.35 2.233 5.025 2.791 0.558 0 1.117 0.558 1.675 0.559 1.675 1.117 3.35 2.792 5.583 3.908 1.117 0.558 1.675 1.117 2.792 1.675h0.558c1.675 1.675 3.908 2.792 5.583 4.466 1.675 1.675 2.792 2.792 5.025 3.909 0 0 0 0 0 0.558 0.558 1.117 1.117 1.675 2.233 2.233 1.117 0.558 1.675 1.117 2.234 1.675 1.675 1.117 3.35 2.233 4.466 3.35 0.558 0.558 1.117 1.117 2.233 2.233 0.558 0.558 1.117 1.117 1.675 1.117 2.233 0.558 3.35 2.233 5.025 3.908 1.117 1.117 2.792 2.792 3.908 3.908 0.558 0.558 1.117 1.675 1.675 2.792 1.117 3.35 2.792 6.7 4.467 9.491 0 0 0 0.558 0.558 1.117v0.558c1.117 1.117 1.675 2.792 2.792 3.908 0.558 0.558 0.558 1.117 1.116 1.675 1.117 1.675 1.675 3.908 2.792 5.583 1.675 2.792 2.792 5.583 3.908 8.375v0.558c0.558 1.117 1.117 2.233 1.675 3.908 0 1.117 1.117 2.233 1.675 3.909 0.558 2.792 2.233 5.583 2.791 8.933 0 0.558 0.558 1.117 0.559 2.233 0.558 1.675 1.117 3.35 1.675 5.025 0 0.558 0.558 1.117 1.116 1.675 1.117 1.117 1.117 2.233 1.117 3.35-0.558 2.233 0 4.467 0.558 6.699 0 0.558 0 1.117 0 2.234 0.558 2.233 1.117 5.025 1.117 7.258 0 0.558 0 1.675 0 2.233 0 1.675 0.558 3.35 1.675 5.025 0 0.558 0.558 0.558 0.558 0.558 0.558 0.558 1.117 1.675 1.675 2.233 0.558 0.558 0.558 0.558 1.117 1.117 1.117 1.117 1.675 2.233 1.675 3.908 0 0.558-0.558 1.675-0.559 2.233 0 0.558 0 1.675 0.559 2.234 0.558 0.558 0.558 1.117 0.558 1.675 0 0.558-0.558 1.117-1.117 1.116v0c-0.558 1.675-2.792 2.233-3.35 3.908-0.558 2.233-1.117 4.467-1.674 6.7-0.558 1.675-0.558 2.792-0.559 4.467 0 1.675-0.558 2.792-0.558 4.466-0.558 2.233-1.117 4.467-1.675 6.7 0 1.117-0.558 2.233-0.558 3.35 0.558 0.558 1.117 1.117 1.675 1.116 1.117 1.117 2.233 2.233 3.349 3.35 0.558 0.558 0.558 1.117 0 1.117-0.558 0.558-1.117 0.558-1.674 0.558-0.558-0.558-1.675-1.117-2.234-1.116-0.558-0.558-1.675-1.117-2.791-0.559 0 1.117-0.558 2.233-0.559 2.792-0.558 1.117-1.117 2.792-1.116 3.908-0.558 2.233-1.675 3.908-2.233 6.142-1.117 2.792-2.233 5.025-3.35 7.258-0.558 1.117-1.117 2.233-1.675 3.35v0c0 1.675-1.675 3.35-2.234 5.024-1.117 2.233-2.233 4.467-3.349 7.258-0.558 1.117-1.117 2.233-1.675 2.792-1.117 2.792-2.233 5.025-3.909 7.258-1.117 1.675-2.233 2.792-3.349 3.35-1.117 1.117-2.233 2.233-3.35 3.35-0.558 0.558-1.117 1.117-1.675 1.675-0.558 0.558-0.558 0.558-1.117 1.116-1.117 1.675-2.792 2.792-3.908 4.467-1.117 1.117-1.675 2.233-3.35 3.35-1.117 1.117-2.233 2.792-3.908 3.35-0.558 0.558-1.117 1.675-1.675 2.233-0.558 0.558-1.117 1.675-1.675 2.233 0 1.117 0.558 2.233 0.558 2.792 0 1.675-1.675 2.233-2.791 1.116-1.675-1.117-1.675-1.117-3.35 0-1.675 1.117-3.35 2.792-5.583 3.35-0.558 0-0.558 0.558-1.117 0.559-1.117 0.558-1.675 1.675-2.792 2.233-1.117 1.117-2.792 1.675-3.908 2.791-0.558 0.558-1.117 0.558-1.675 1.117-1.675 1.117-3.35 1.675-5.024 3.35-0.558 0.558-1.117 0.558-1.675 1.117 0 0.558 0 0.558 0 1.116 0 1.117-1.117 2.233-2.792 1.675-1.675-0.558-2.792 0-4.466 0-1.675 0.558-3.35 1.675-5.025 2.233-0.558 0-1.117 0.558-1.675 1.117-1.675 1.117-3.35 1.675-5.025 2.233-1.117 0-2.233 1.117-3.35 1.117-0.558 0-1.117 0.558-1.675 0.558h-0.558c-2.233 1.675-4.467 2.792-6.7 4.467-0.558 0-0.558 0.558-1.117 1.116-0.558 1.117-1.117 1.675-2.233 1.675-2.792 0-3.908 2.233-3.35 4.467 0 0.558 0.558 1.117 0.559 1.675 0.558 1.117 0 2.233-0.559 2.791-0.558 0.558-2.233 0.558-2.791-0.558-1.117-1.117-1.675-2.233-2.234-3.908-0.558-1.117-1.675-2.233-2.791-2.792-1.117-0.558-2.233-0.558-3.35 0-0.558 0-0.558 0.558-1.117 0.558-1.117 1.117-2.792 1.675-4.466 1.117-0.558 0-1.675 0-1.675 0.558-0.558 0.558-0.558 1.675 0 2.234 1.117 1.117 0.558 2.233 0.558 3.908 0 2.233-1.675 3.35-3.908 2.233-0.558-0.558-1.117-0.558-1.675-1.117-0.558 0-0.558-0.558-0.558-1.116-0.558-0.558-0.558-1.675-1.117-2.792-1.117 0.558-2.233 0.558-3.35 1.117-0.558 0-1.117 0.558-1.675 0.558-1.675 0-2.233 0-2.791-1.675-0.558-1.675-1.675-1.675-2.792-2.233-2.233-0.558-5.025-0.558-7.258-1.675h-0.558c-2.233-1.675-4.467-1.675-7.258-1.675-1.675 0-3.35 0.558-5.025 0.558-1.675 0-2.792 0.558-3.908 1.675-0.558 0.558-1.117 1.117-1.675 1.117-0.558-0.558-0.558-1.117-1.117-1.675v-0.558c0-0.558-0.558-1.117-1.116-0.559-1.117 0.558-2.233-0.558-3.35-1.116-0.558-0.558-1.675-1.675-1.675-2.792-0.558-0.558-1.117-1.117-1.675-1.116-1.117 0-2.792-0.558-3.908-0.559-0.558 0-1.117 0-1.117-0.558-0.558-0.558-1.117-0.558-2.233-0.558-0.558 0-0.558-0.558-1.117-0.559 1.117 1.117 1.675 2.233 2.233 3.35 0 0.558 0.558 0.558 0.559 1.117 0.558 1.117 0 1.675-1.675 1.675-1.117 0-1.117 0-1.675 0.558 0 1.117 0 1.675 0 2.792 0 0.558 0 1.117-1.117 1.675 0 0-0.558 0-0.558 0.558-0.558 0.558-0.558 1.117 0 1.675 1.675 1.117 2.792 1.675 4.466 2.233 1.675 0 1.675 1.117 2.234 2.233 0.558 1.117 0 1.675-0.559 2.792-1.117 1.117-2.233 2.233-3.35 3.35-1.675 0.558-2.792 2.233-4.466 2.233-1.117 0-2.233-0.558-2.792-1.675-0.558-2.792-0.558-5.025 0.559-7.816 0-0.558 0.558-1.117 0-1.675-5.025 0-5.025-1.117-5.025-1.675 0-1.117 0.558-1.675 0.558-2.792 0.558-1.117 0-1.675-1.675-2.233-0.558 0-1.117 0-1.675 0-0.558 0-0.558-0.558-1.675-0.558 1.117-0.558 1.675-0.558 2.792-1.117-0.558-2.233-1.117-3.908-2.792-5.025-0.558-0.558-1.117-1.117-1.116-2.233 0-1.675-1.117-2.792-1.675-3.908-1.117-1.675-3.35-2.233-5.025-2.233-1.675-0.558-2.792-0.558-4.467-1.117-1.675-0.558-3.35-2.233-5.024-2.792-0.558-0.558-1.117-1.117-2.234-1.674-2.233-1.117-3.908-2.792-5.583-4.467-1.117-0.558-1.675-1.675-2.791-2.233-1.117-1.117-1.675-2.233-2.792-2.792-1.117-1.117-2.233-2.233-3.908-3.35-1.675-1.117-2.792-2.792-4.467-4.466-1.117-1.675-2.792-2.792-4.466-3.908-0.558 0-1.117 0-1.675 0-0.558 0-1.117 0.558-1.675 0.558-1.675 0.558-2.792 1.675-4.467 2.233 0.558-0.558 0.558-0.558 0-1.675-0.558-0.558-1.117-1.117-1.674-1.116-1.117 0-2.233 0-3.35 0-2.233 0-4.467 0.558-6.7 0.558-1.675 0-3.908 0.558-5.583 1.117 0.558 1.117 0.558 1.675 1.116 2.791-1.117 0.558-2.233 0.558-3.35 0.558-0.558 0-1.675 0.558-2.233 1.117-0.558 0-0.558 0.558-1.116 0-1.117-0.558-2.233 0-3.35 0.558h-0.559c0 0 0-0.558 0.559-0.558 0.558-0.558 1.117-1.117 1.675-1.675 0.558-0.558 1.117-0.558 2.233-1.117-0.558-0.558-0.558-1.117-0.558-1.116-0.558-0.558-1.117-0.558-1.675 0-0.558 0.558-1.117 1.117-1.675 1.675-0.558 0.558-1.117 0.558-1.675 0-0.558-0.558-0.558-1.117 0-1.675 0-0.558 0.558-1.117 1.116-1.675 0.558-0.558 0.558-1.117 1.117-1.675-1.117-1.117-1.675-2.233-2.792-2.792-1.675-1.117-3.35-2.792-4.466-4.466-1.117-2.233-2.792-3.908-5.025-5.025-0.558-0.558-1.117-1.117-1.675-1.675-0.558-0.558-0.558-0.558-1.116-1.117-1.675 0.558-2.792 1.675-4.467 2.234-0.558 0-0.558 0.558-1.117 1.116-0.558 1.117-1.675 1.117-2.791 1.117-0.558 0-1.117-0.558-0.558-1.117 0.558-1.117 1.117-2.233 2.791-1.675 0 0 0.558 0 0.558-0.558 1.117-1.117 2.233-2.792 3.909-3.908-0.558-1.675-1.675-2.792-2.234-3.908-0.558-0.558-0.558-1.117-0.558-2.234 0-0.558 0-0.558-0.558-1.116 0 0-0.558 0-1.117 0.558-0.558 0.558-1.675 1.117-2.791 0 0-0.558 0-1.117 0.558-1.675l0.558-0.558c1.675-0.558 1.675-2.233 1.675-3.908v-0.559c-0.558-1.117-0.558-1.675 0.558-2.791 1.675-1.117 3.35-3.35 3.909-5.025 0.558-1.117 1.675-1.675 2.791-2.792 1.117-1.117 2.233-2.233 2.792-3.908h0.558c2.233 0.558 2.792-1.117 3.908-2.791 0-0.558 0-1.117 0.559-1.117 1.117-1.117 1.117-2.233 0.558-3.908 0-0.558-0.558-1.675-0.558-2.233 0-0.558 0-0.558-0.559-1.117-1.675-1.117-1.675-2.233 0-3.35 1.117-0.558 1.117-1.675 1.675-2.233 0.558-1.117 0.558-2.233 0.559-3.908-0.558-1.675-0.558-3.908-1.117-5.583-0.558-2.233-1.117-5.025-1.675-7.259 0-0.558 0-0.558 0-1.116 0-1.675 0-2.792-0.558-4.467-0.558-0.558-0.558-1.675-0.559-2.233-0.558-1.675-1.117-2.792-2.791-3.35-1.675-1.117-3.908-1.675-5.583-2.791-0.558-0.558-1.117 0-1.675 0.558-0.558 1.117-1.675 2.233-2.234 3.35-0.558 0.558-1.117 1.675-1.675 2.791-1.117 1.117-3.35 2.233-5.024 0.559-0.558-1.117-1.117-1.675 0-2.792 1.117-1.675 2.233-3.35 3.908-4.466 0.558-0.558 1.117-1.675 1.675-2.234 0.558-1.117 0.558-2.233 0.558-3.35-0.558-2.233-1.117-4.467-1.117-7.258 0-2.792 0-5.025 0.559-7.816 0.558-1.117 0.558-2.792 1.116-3.908 0-0.558 0.558-1.675 1.117-2.233 1.117-1.117 2.233-2.233 2.792-3.909 0.558-1.675 1.675-3.35 1.675-5.024 0-0.558 0.558-1.117 0.558-1.675 0-0.558 0.558-1.675 0.558-2.234-0.558-1.675 0-2.792 0.558-3.908 0.558-1.117 1.117-2.792 1.675-3.908 1.117-2.233 1.117-5.025 3.35-7.258 0.558-1.117 1.117-2.233 1.675-3.35 0.558-2.233 1.675-3.908 2.792-5.583 0.558-0.558 0.558-0.558 0.558-1.117 0.558-1.675 1.675-3.35 2.792-5.025 1.117-1.675 1.117-3.35 1.675-5.024 0-0.558 0-1.117 0.558-1.675 1.675-1.675 1.117-3.908 0.558-6.142-1.117-2.792-1.675-5.583-1.116-8.374 0-0.558 0-1.117 0.558-1.117 0.558-1.117 0.558-1.675 1.117-2.792v-0.558c1.117-1.117 2.233-2.792 3.908-3.35 2.233-1.117 4.467-1.675 7.258-2.233 2.233 0 4.467-1.117 6.141-3.35 0-0.558 0.558-0.558 1.117-1.117l0.558-0.558c0.558-1.117 1.117-1.675 1.675-2.233 1.117-1.117 2.233-2.792 3.35-3.908 1.117-1.117 2.233-2.792 3.908-4.467l0.559-0.558c1.117-1.117 2.233-2.233 3.349-2.792 1.117-1.117 2.233-2.233 3.35-3.35 1.117-1.117 1.675-2.233 2.792-3.35 1.117-0.558 2.233-1.675 3.35-2.791 1.117-1.117 2.233-2.233 2.791-2.792 1.117-1.117 2.792-2.233 3.909-2.791 1.117-0.558 2.233-1.117 2.791-2.792 0.558-1.675 1.117-2.792 1.675-4.466 0-1.117 0.558-2.233 1.117-3.35 0.558 0 1.117 0 2.233-0.558-0.558-0.558-1.117-0.558-1.117-1.117 0-0.558 0.558-1.117 0.559-1.117 0-0.558 0.558-1.117 0.558-1.675 0 0 0.558 0 0.558-0.558 0 0 0.558 0 0.559-0.558-1.117 0.558-1.675 0-2.234-0.559 0.558 0.558 1.117 0.558 2.234 1.117 0 0 0.558 0 0.558-0.558 0-0.558 0-1.117 0-1.117 0 0-0.558 0-1.117 0-0.558 0-1.117 0.558-1.675 0.558zM182.097 295.292c0-0.558-0.558-0.558-0.559-1.117-0.558-1.117 0-1.675 0.559-2.233 0.558-0.558 1.117-0.558 2.233-0.558 1.117 0.558 1.675 1.117 1.675 2.233 0 0.558 0 1.675 0 2.233 0.558 2.233 0.558 2.233 2.791 2.233 1.117 0 2.233 0 3.35 0 2.233-0.558 4.467-1.675 6.7-2.233 2.233-0.558 4.467-1.117 6.7-1.675 0.558 0 1.117 0 2.233 0 2.233 0.558 3.908 0 5.583-1.117 0.558-0.558 1.675-0.558 2.233-1.116 1.117-0.558 2.233-0.558 3.35-1.117 2.792-1.675 5.583-2.792 7.817-4.466 1.675-1.117 3.35-2.233 5.024-3.35 1.675-1.117 3.35-2.233 5.025-3.35 1.117-0.558 2.792-1.675 3.908-2.792 2.233-1.675 3.908-3.35 6.142-4.466 1.117-0.558 1.675-1.117 2.233-1.675 1.117-0.558 1.675-1.675 2.792-2.233 0.558-0.558 1.117-1.117 2.233-1.675 0.558-0.558 0.558-0.558 0.558-1.117 1.675-1.117 3.35-3.35 4.467-5.025 1.117-1.117 2.233-2.233 3.35-3.908 1.675-1.675 2.792-3.908 4.466-6.141 1.117-1.117 2.233-2.792 2.792-3.909 1.117-2.233 2.233-4.467 3.908-6.141v-0.558c1.117-2.233 2.233-4.467 3.35-6.7 1.675-2.792 2.792-6.141 4.466-8.933 0.558-1.117 1.117-2.233 1.117-3.35 1.117-2.233 1.675-4.467 2.233-6.7 0-0.558 0-0.558 0.559-1.116 1.675-3.35 2.792-6.7 3.349-10.608 0.558-2.233 1.117-4.467 1.675-6.7 1.117-3.35 1.117-6.141 1.675-9.491 0.558-2.233 0.558-5.025 0.559-7.258 0.558-3.35 0.558-7.258 0-10.608 0-2.792-0.558-6.141-0.559-8.933 0-2.792-0.558-5.025-1.116-7.817-0.558-2.792-1.117-5.025-1.675-7.816-1.117-2.233-1.675-4.467-2.234-7.258-0.558-2.233-1.675-3.908-1.674-6.142 0-1.675-0.558-3.35-2.234-3.908-1.675-0.558-2.792-1.117-4.466-2.233-3.35-2.233-5.025-5.025-4.467-8.375 0-1.675 0.558-3.908 1.117-5.583 0.558-1.675 1.117-3.35 0-4.467-0.558-1.675-1.675-2.792-2.233-3.908-1.117-1.675-1.675-2.792-2.792-3.908-1.117-2.233-2.233-4.467-3.908-6.141-2.233-2.792-3.908-5.583-6.7-7.817l-0.558-0.558c-1.675-2.233-3.35-4.467-5.583-6.142-1.117-1.117-2.233-2.233-3.35-2.791-0.558-0.558-1.117-1.117-2.233-1.675-1.675-1.117-3.35-1.675-4.467-2.792-1.675-1.675-3.908-2.792-5.583-3.908 0 0-0.558 0-0.558-0.558-2.233-1.117-3.908-1.675-6.142-2.792-2.233-1.117-4.467-1.675-6.7-1.675-0.558 0-0.558 0-1.116 0-0.558-0.558-1.675-0.558-2.233-0.558-0.558 0-0.558 0-1.117 0-1.117-0.558-2.792 0-3.908 0-2.233 0.558-4.467 0.558-6.7-0.558-2.792-1.117-5.025-2.233-7.258-3.35-1.675-1.117-2.792-2.233-4.467-3.35-3.35-2.792-6.7-6.141-10.608-8.933 0.558-2.792-0.558-3.35-2.791-3.35-1.117 0-2.233 0.558-3.35 1.117-0.558 0.558-0.558 0.558-1.117 1.116-1.675 1.117-2.792 2.792-4.466 3.909-2.792 1.675-3.908 1.117-6.142 0-0.558-0.558-1.117-1.117-1.675-1.675-1.117-1.117-2.233-2.792-2.791-3.909-1.117-2.233-3.35-2.233-5.583-2.233-1.117 0-2.792 0.558-3.908 0.558-2.233 0-4.467 1.117-5.584 2.792-1.117 1.675-2.233 3.35-3.908 5.025-0.558 0.558-1.675 1.117-2.233 2.233-1.117 1.117-2.233 1.117-3.35 0-0.558-0.558-1.117-0.558-1.675-1.117-0.558 0.558-1.117 1.117-1.117 1.675-0.558 1.117-1.117 2.233-1.674 3.909-0.558 1.675-1.675 3.35-2.792 4.466-0.558 0.558-0.558 0.558-1.117 1.117-0.558 1.117-2.233 1.675-3.35 1.675-1.117 1.117-2.233 2.792-2.791 3.908-0.558 1.117-1.117 2.233-1.675 3.908-0.558 0.558-0.558 1.675-1.117 2.233-0.558 1.117-0.558 1.675-0.558 2.792 0.558 1.675-0.558 2.233-2.233 2.791-1.117 0-1.117 0-1.675 1.117 0 1.675 0.558 2.792 1.116 4.467 0.558 0.558 1.117 1.675 1.117 2.233 0 1.117 0.558 1.675 1.675 2.233 0.558 0.558 1.117 1.117 1.675 1.117 0.558 0 0.558 0.558 1.117 0.558 0.558 0.558 1.117 0 1.116-0.558 0.558-1.675 1.117-3.35 1.117-5.025 0.558-2.233 0.558-3.908 1.116-6.142 0.558-1.117 1.117-1.675 1.675-2.233 0 0 0.558 0 1.117 0v0.559c-0.558 2.792-1.675 6.141-2.233 8.933-0.558 1.117-0.558 2.233-1.117 3.349 0 0.558-0.558 1.117-1.116 1.117-1.117 0.558-2.233 1.117-3.35 1.117-0.558 0-1.117 0-1.675 0-1.117-0.558-2.233-1.675-3.35-2.234-0.558-0.558-1.117-1.117-1.675-1.674-0.558-1.117-1.117-2.233-1.675-3.35-0.558-1.117-1.117-1.675-2.233-2.234-0.558-0.558-1.117-0.558-1.675-1.116-1.117-1.117-2.233-1.675-3.908-1.675-0.558 0-1.675 0-2.234 0-0.558 0-1.675 0.558-2.233 1.116-1.117 0.558-1.675 0.558-2.791 0-2.792-1.117-5.583-0.558-8.375 0.559-1.117 0.558-2.233 1.117-3.35 1.116-2.792 0-5.025 0-7.816 0-2.792 0-5.025-0.558-7.817-1.116-1.117 0-2.233 0-3.35 0-2.233 0.558-2.792 2.233-2.233 4.466 0.558 2.233 1.117 5.025 1.117 7.258 0 1.675 0 3.35 0 5.025 0 1.117 0 1.675 0 2.792 0 1.675-0.558 3.35-0.559 5.025-0.558 3.35-2.233 6.141-4.466 8.374-1.675 1.675-3.908 3.35-6.142 3.908-1.117 0.558-2.233 1.117-3.908 1.675-2.792 1.117-5.025 3.35-6.7 6.142-0.558 1.117-1.117 2.233-1.674 3.35-1.117 1.675-1.675 2.792-2.792 4.466-0.558 1.117-1.675 2.233-2.233 3.35-0.558 1.117-1.675 1.675-1.675 2.792-1.117 2.233-1.675 4.467-2.792 6.699-0.558 1.117-0.558 2.792-1.116 3.909-1.117 2.233-1.117 4.467-1.117 7.258 0 0.558 0 1.117 0 2.233 0 2.792-0.558 6.141-0.558 8.933 0 2.792 0 5.583 0.558 8.375 0 1.117 0 2.792 0 3.908 0 2.233 0.558 5.025 0.558 7.258 0 2.233 0 5.025 1.117 7.258v0.558c0.558 2.233 0.558 4.467 1.116 6.7 0 0.558 0 1.117 0.559 1.675 1.117 3.35 1.675 6.141 2.791 9.491 0.558 2.233 1.675 4.467 2.234 6.7 0.558 2.233 2.792 4.467 3.349 7.258v0c1.675 3.35 3.35 6.7 5.584 10.05 0.558 1.117 1.675 2.233 2.233 3.35 1.117 1.675 1.675 3.35 2.791 4.466 0.558 1.117 1.675 2.233 2.234 2.792 0.558 1.117 1.117 2.233 2.233 3.35 1.117 1.117 2.233 2.792 3.35 3.908 1.675 2.792 3.908 5.025 6.141 6.7 1.117 1.117 2.233 1.675 3.35 2.791 0.558 0.558 1.117 0.558 1.117 1.117 0.558 0.558 1.117 1.117 2.233 1.675 4.467 2.233 7.816 5.583 11.725 8.933 1.675 1.675 3.35 3.35 5.583 4.466 2.233 1.675 3.908 3.35 6.7 3.908 0 0 0.558 0 0.558 0.559 1.117 1.117 2.792 1.675 3.908 2.233 2.233 1.117 5.025 2.233 7.258 3.35 0.558 0.558 1.675 0.558 2.233 1.117 1.675 0.558 3.35 1.117 5.025 1.674 1.675 0.558 2.792 1.117 4.467 1.117h0.558c1.117 0.558 1.675 0.558 2.792 0 0.558 0 1.117 0 1.116 0.558 0 0.558 0.558 0.558 1.117 0.559 0.558 0 1.117 0 2.233 0 0.558-0.558 0.558-1.117 1.117-2.234 0.558 0.558 1.117 0.558 1.116 0.559 0.558 1.117 1.675 1.117 2.792 1.116h0.558c1.117 0 1.675 0 2.233-0.558 0-0.558 1.117-0.558 1.675-0.558 1.675 0.558 3.35 0.558 5.025 1.116 1.117 0.558 2.792 0.558 3.35-0.558 0.558-0.558 1.117-1.117 2.233-0.558 1.117 0.558 1.675 0.558 2.792 0 0.558 0 1.117 0 1.117 0 1.675 0.558 2.792 0.558 4.466 1.116 2.233 0.558 2.233 0.558 3.908-1.116 0.558-0.558 1.675-0.558 2.233 0 0.558 1.117 0.558 1.675 0.559 2.791 0.558 0 0.558 0 1.116-0.558 0-1.117 0.558-1.117 1.675-1.675 0.558 0.558 0.558 0.558 1.117 0.558 1.117 1.117 1.675 1.117 2.233-0.558 0-0.558 0-1.117 0.559-1.116 0.558 0 1.117 0.558 1.116 0.558 0.558 1.117 1.675 1.675 2.233 2.791 1.117 1.117 2.792 1.117 3.35 0 0.558-0.558 1.117-0.558 1.675-0.558 0-0.558 0-1.117 0-1.675 1.675 1.117 1.117 1.117 0.559 1.117zM89.417 34.559c1.675 0.558 2.792 0.558 3.349-0.558-1.117 0.558-2.233-0.558-3.349 0.558z" fill="#214001" fill-rule="nonzero" stroke="none" stroke-width="1" stroke-linecap="butt" stroke-linejoin="miter" stroke-miterlimit="10" stroke-dasharray="" stroke-dashoffset="0" font-family="none" font-weight="none" font-size="none" text-anchor="none" style="mix-blend-mode: normal" data-fill-palette-color="tertiary"></path></g><g transform="matrix(1,0,0,1,64,174.29517075372348)"><svg viewBox="0 0 192 11.409658492553033" height="11.409658492553033" width="192"><g><svg viewBox="0 0 192 11.409658492553033" height="11.409658492553033" width="192"><g><svg viewBox="0 0 192 11.409658492553033" height="11.409658492553033" width="192"><g><svg viewBox="0 0 192 11.409658492553033" height="11.409658492553033" width="192"><g id="textblocktransform"><svg viewBox="0 0 192 11.409658492553033" height="11.409658492553033" width="192" id="textblock"><g><svg viewBox="0 0 192 11.409658492553033" height="11.409658492553033" width="192"><g transform="matrix(1,0,0,1,0,0)"><svg width="192" viewBox="2.15 -39 664.64 39.5" height="11.409658492553033" data-palette-color="#214001"><path d="M18.85-33.05L18.85-33.05Q16.95-33.05 15.23-32.25 13.5-31.45 12.45-29.95L12.45-29.95Q11.1-28 10.18-25.08 9.25-22.15 9.25-18.6L9.25-18.6Q9.25-15.05 10-11.95 10.75-8.85 12.1-6.75L12.1-6.75Q13.2-5.05 15.08-4.25 16.95-3.45 19.3-3.45L19.3-3.45Q27.7-3.45 29.15-11.9L29.15-11.9 33.4-11.9Q30.95 0.5 18.2 0.5L18.2 0.5Q11.3 0.5 7.2-3.5L7.2-3.5Q4.75-5.9 3.45-9.55 2.15-13.2 2.15-17.65L2.15-17.65Q2.15-22.7 3.8-26.8 5.45-30.9 8.45-33.35L8.45-33.35Q12.25-36.5 18.5-36.5L18.5-36.5Q21.6-36.5 23.55-35.7 25.5-34.9 27.4-32.85L27.4-32.85 28.4-36 32.65-36 32.65-24.2 28.1-24.2Q27.4-28.6 24.98-30.83 22.55-33.05 18.85-33.05ZM62.75-13.5L62.75-13.5Q62.75-10.3 61.82-7.48 60.9-4.65 59.15-2.75L59.15-2.75Q57.5-1 55.17-0.25 52.85 0.5 49.75 0.5L49.75 0.5Q46.65 0.5 44.32-0.25 42-1 40.35-2.75L40.35-2.75Q38.6-4.65 37.67-7.48 36.75-10.3 36.75-13.5L36.75-13.5Q36.75-16.7 37.67-19.55 38.6-22.4 40.35-24.25L40.35-24.25Q42-26 44.32-26.75 46.65-27.5 49.75-27.5L49.75-27.5Q52.85-27.5 55.17-26.75 57.5-26 59.15-24.25L59.15-24.25Q60.9-22.4 61.82-19.55 62.75-16.7 62.75-13.5ZM45.2-4.85L45.2-4.85Q45.9-3.85 47.02-3.35 48.15-2.85 49.75-2.85L49.75-2.85Q51.35-2.85 52.5-3.35 53.65-3.85 54.3-4.85L54.3-4.85Q55.9-7.3 55.9-13.5L55.9-13.5Q55.9-16.65 55.5-18.8 55.1-20.95 54.3-22.15L54.3-22.15Q53.65-23.15 52.5-23.65 51.35-24.15 49.75-24.15L49.75-24.15Q48.15-24.15 47.02-23.65 45.9-23.15 45.2-22.15L45.2-22.15Q43.6-19.7 43.6-13.5L43.6-13.5Q43.6-7.3 45.2-4.85ZM66.14-2.8L70-3.75 70-23.25 66.14-24.2 66.14-27 74.84-27 75.94-22 76.14-22Q77.64-24.55 80.19-26.03 82.75-27.5 85.64-27.5L85.64-27.5Q89.8-27.5 91.8-24.8L91.8-24.8Q92.8-23.4 93.22-20.88 93.64-18.35 93.64-14.05L93.64-14.05 93.64-3.75 97.5-2.8 97.5 0 83.94 0 83.94-2.8 87.3-3.75 87.3-13.4Q87.3-16.4 87.12-18.07 86.94-19.75 86.5-20.75L86.5-20.75Q85.94-22.05 85-22.55 84.05-23.05 82.75-23.05L82.75-23.05Q80.3-23.05 78.59-21.45L78.59-21.45Q76.55-19.55 76.34-15.6L76.34-15.6 76.34-3.75 79.69-2.8 79.69 0 66.14 0 66.14-2.8ZM117.04-2.8L120.39-3.75 120.39-13.4Q120.39-16.65 120.22-18.23 120.04-19.8 119.59-20.75L119.59-20.75Q118.39-23.2 115.19-23.2L115.19-23.2Q113.79-23.2 112.49-22.5 111.19-21.8 110.44-20.5L110.44-20.5Q110.04-19.85 109.74-18.68 109.44-17.5 109.44-15.8L109.44-15.8 109.44-3.75 112.79-2.8 112.79 0 99.24 0 99.24-2.8 103.09-3.75 103.09-35.25 99.24-36.2 99.24-39 109.44-39 109.44-22.3Q110.74-24.7 112.87-26.1 114.99-27.5 117.54-27.5L117.54-27.5Q119.69-27.5 121.17-26.98 122.64-26.45 123.74-25.3L123.74-25.3Q125.29-23.7 126.02-21.03 126.74-18.35 126.74-14.05L126.74-14.05 126.74-3.75 130.59-2.8 130.59 0 117.04 0 117.04-2.8ZM157.09-12.8L157.09-12.8 139.64-12.8Q139.64-9.4 140.64-7.15L140.64-7.15Q141.44-5.45 142.79-4.53 144.14-3.6 146.14-3.6L146.14-3.6Q148.34-3.6 150.51-4.6 152.69-5.6 154.24-7.6L154.24-7.6 156.94-5.5Q155.19-3 152.22-1.25 149.24 0.5 144.89 0.5L144.89 0.5Q141.24 0.5 138.59-0.98 135.94-2.45 134.54-5.3L134.54-5.3Q133.79-6.85 133.44-8.75 133.09-10.65 133.09-12.85L133.09-12.85Q133.09-19.85 136.31-23.68 139.54-27.5 145.44-27.5L145.44-27.5Q150.89-27.5 154.06-24.33 157.24-21.15 157.24-15.55L157.24-15.55Q157.24-15 157.22-14.48 157.19-13.95 157.09-12.8ZM145.34-24.05L145.34-24.05Q140.19-24.05 139.69-16L139.69-16 150.69-16 150.69-17.3Q150.69-20.55 149.26-22.3 147.84-24.05 145.34-24.05ZM173.99-27.5L173.99-27.5Q177.09-27.5 179.49-26.53 181.89-25.55 183.26-23.8 184.64-22.05 184.64-19.7L184.64-19.7Q184.64-17.45 183.44-16.28 182.24-15.1 180.49-15.1L180.49-15.1Q178.54-15.1 177.76-16.3 176.99-17.5 176.99-18.75L176.99-18.75Q176.99-20 177.61-20.93 178.24-21.85 179.49-22.2L179.49-22.2Q178.84-23.1 177.41-23.65 175.99-24.2 174.24-24.2L174.24-24.2Q171.09-24.2 169.34-21.9 167.59-19.6 167.59-13.65L167.59-13.65Q167.59-10.95 167.94-9.4 168.29-7.85 168.89-6.7L168.89-6.7Q169.69-5.25 170.94-4.42 172.19-3.6 174.14-3.6L174.14-3.6Q176.19-3.6 178.46-4.58 180.74-5.55 182.24-7.6L182.24-7.6 184.94-5.5Q182.64-2.3 179.54-0.9 176.44 0.5 172.94 0.5L172.94 0.5Q169.24 0.5 166.66-0.93 164.09-2.35 162.64-5.1L162.64-5.1Q160.84-8.45 160.84-13.25L160.84-13.25Q160.84-17.6 162.41-20.8 163.99-24 166.94-25.75 169.89-27.5 173.99-27.5ZM191.69-3.75L191.69-23.25 187.84-24.2 187.84-27 198.04-27 198.04-3.75 201.89-2.8 201.89 0 187.84 0 187.84-2.8 191.69-3.75ZM191.14-34.6L191.14-34.6Q191.14-36.2 192.11-37.2 193.09-38.2 194.84-38.2L194.84-38.2Q196.59-38.2 197.59-37.2 198.59-36.2 198.59-34.6L198.59-34.6Q198.59-33.05 197.61-32.05 196.64-31.05 194.84-31.05L194.84-31.05Q193.04-31.05 192.09-32.02 191.14-33 191.14-34.6ZM204.38-2.8L208.23-3.75 208.23-23.25 204.38-24.2 204.38-27 213.08-27 214.18-22 214.38-22Q215.83-24.5 218.26-26 220.68-27.5 223.43-27.5L223.43-27.5Q225.48-27.5 227.08-26.73 228.68-25.95 229.43-24.8L229.43-24.8Q230.23-23.55 230.73-21.5L230.73-21.5Q232.33-24.3 234.88-25.9 237.43-27.5 240.33-27.5L240.33-27.5Q242.33-27.5 243.93-26.73 245.53-25.95 246.38-24.6L246.38-24.6Q246.98-23.65 247.33-22.15 247.68-20.65 247.83-18.28 247.98-15.9 247.98-12.25L247.98-12.25 247.98-3.75 251.83-2.8 251.83 0 238.28 0 238.28-2.8 241.63-3.75 241.63-13.4Q241.63-16.65 241.43-18.23 241.23-19.8 240.83-20.75L240.83-20.75Q240.33-21.95 239.51-22.43 238.68-22.9 237.78-22.9L237.78-22.9Q236.53-22.9 235.51-22.55 234.48-22.2 233.53-21.35L233.53-21.35Q232.43-20.35 231.91-19 231.38-17.65 231.28-15.6L231.28-15.6 231.28-3.75 234.63-2.8 234.63 0 221.58 0 221.58-2.8 224.93-3.75 224.93-13.4Q224.93-16.65 224.73-18.23 224.53-19.8 224.13-20.75L224.13-20.75Q223.63-21.95 222.81-22.43 221.98-22.9 221.08-22.9L221.08-22.9Q219.83-22.9 218.81-22.55 217.78-22.2 216.83-21.35L216.83-21.35Q215.73-20.35 215.21-19 214.68-17.65 214.58-15.6L214.58-15.6 214.58-3.75 217.93-2.8 217.93 0 204.38 0 204.38-2.8ZM278.48-12.8L278.48-12.8 261.03-12.8Q261.03-9.4 262.03-7.15L262.03-7.15Q262.83-5.45 264.18-4.53 265.53-3.6 267.53-3.6L267.53-3.6Q269.73-3.6 271.91-4.6 274.08-5.6 275.63-7.6L275.63-7.6 278.33-5.5Q276.58-3 273.61-1.25 270.63 0.5 266.28 0.5L266.28 0.5Q262.63 0.5 259.98-0.98 257.33-2.45 255.93-5.3L255.93-5.3Q255.18-6.85 254.83-8.75 254.48-10.65 254.48-12.85L254.48-12.85Q254.48-19.85 257.71-23.68 260.93-27.5 266.83-27.5L266.83-27.5Q272.28-27.5 275.46-24.33 278.63-21.15 278.63-15.55L278.63-15.55Q278.63-15 278.61-14.48 278.58-13.95 278.48-12.8ZM266.73-24.05L266.73-24.05Q261.58-24.05 261.08-16L261.08-16 272.08-16 272.08-17.3Q272.08-20.55 270.66-22.3 269.23-24.05 266.73-24.05ZM281.93-2.8L285.78-3.75 285.78-23.25 281.93-24.2 281.93-27 290.63-27 291.73-22 291.93-22Q293.43-24.55 295.98-26.03 298.53-27.5 301.43-27.5L301.43-27.5Q305.58-27.5 307.58-24.8L307.58-24.8Q308.58-23.4 309-20.88 309.43-18.35 309.43-14.05L309.43-14.05 309.43-3.75 313.28-2.8 313.28 0 299.73 0 299.73-2.8 303.08-3.75 303.08-13.4Q303.08-16.4 302.9-18.07 302.73-19.75 302.28-20.75L302.28-20.75Q301.73-22.05 300.78-22.55 299.83-23.05 298.53-23.05L298.53-23.05Q296.08-23.05 294.38-21.45L294.38-21.45Q292.33-19.55 292.13-15.6L292.13-15.6 292.13-3.75 295.48-2.8 295.48 0 281.93 0 281.93-2.8ZM319.18-23.75L314.33-23.75 314.33-26.3 319.23-27 319.83-33.2 325.53-34 325.53-27 331.93-27 331.93-23.75 325.53-23.75 325.53-7.4Q325.53-5.7 325.58-5.08 325.63-4.45 325.78-4.05L325.78-4.05Q325.93-3.75 326.33-3.6 326.73-3.45 327.63-3.45L327.63-3.45 331.13-3.45 331.13-1.25Q328.23-0.35 326 0.08 323.78 0.5 322.48 0.5L322.48 0.5Q320.23 0.5 319.58-1.35L319.58-1.35Q319.38-1.95 319.28-2.9 319.18-3.85 319.18-5.7L319.18-5.7 319.18-23.75ZM360.17-13.5L360.17-13.5Q360.17-10.3 359.25-7.48 358.32-4.65 356.57-2.75L356.57-2.75Q354.92-1 352.6-0.25 350.27 0.5 347.17 0.5L347.17 0.5Q344.07 0.5 341.75-0.25 339.42-1 337.77-2.75L337.77-2.75Q336.02-4.65 335.1-7.48 334.17-10.3 334.17-13.5L334.17-13.5Q334.17-16.7 335.1-19.55 336.02-22.4 337.77-24.25L337.77-24.25Q339.42-26 341.75-26.75 344.07-27.5 347.17-27.5L347.17-27.5Q350.27-27.5 352.6-26.75 354.92-26 356.57-24.25L356.57-24.25Q358.32-22.4 359.25-19.55 360.17-16.7 360.17-13.5ZM342.62-4.85L342.62-4.85Q343.32-3.85 344.45-3.35 345.57-2.85 347.17-2.85L347.17-2.85Q348.77-2.85 349.92-3.35 351.07-3.85 351.72-4.85L351.72-4.85Q353.32-7.3 353.32-13.5L353.32-13.5Q353.32-16.65 352.92-18.8 352.52-20.95 351.72-22.15L351.72-22.15Q351.07-23.15 349.92-23.65 348.77-24.15 347.17-24.15L347.17-24.15Q345.57-24.15 344.45-23.65 343.32-23.15 342.62-22.15L342.62-22.15Q341.02-19.7 341.02-13.5L341.02-13.5Q341.02-7.3 342.62-4.85ZM374.17-2.55L374.17-2.55Q376.67-2.55 378.45-3.5 380.22-4.45 380.22-6.15L380.22-6.15Q380.22-7.5 379.15-8.4 378.07-9.3 376.45-9.9 374.82-10.5 373.12-11L373.12-11Q371.07-11.65 369.17-12.65 367.27-13.65 366.07-15.33 364.87-17 364.87-19.55L364.87-19.55Q364.87-23.15 367.5-25.33 370.12-27.5 374.92-27.5L374.92-27.5Q379.52-27.5 382.25-25.58 384.97-23.65 384.97-20.6L384.97-20.6Q384.97-18.9 384.05-17.98 383.12-17.05 381.52-17.05L381.52-17.05Q379.92-17.05 379.02-17.82 378.12-18.6 378.12-19.65L378.12-19.65Q378.12-20.5 378.62-21.3 379.12-22.1 379.92-22.45L379.92-22.45Q379.27-23.4 378.07-23.93 376.87-24.45 375.12-24.45L375.12-24.45Q372.82-24.45 371.65-23.48 370.47-22.5 370.47-20.75L370.47-20.75Q370.47-19.45 371.07-18.57 371.67-17.7 372.75-17.15 373.82-16.6 375.27-16.15L375.27-16.15Q377.27-15.55 379.2-14.9 381.12-14.25 382.67-13.3 384.22-12.35 385.15-10.98 386.07-9.6 386.07-7.65L386.07-7.65Q386.07-5.05 384.47-3.23 382.87-1.4 380.15-0.45 377.42 0.5 374.02 0.5L374.02 0.5Q369.27 0.5 366.57-1.28 363.87-3.05 363.87-6L363.87-6Q363.87-8.05 365.02-9.2 366.17-10.35 367.77-10.35L367.77-10.35Q368.97-10.35 370-9.68 371.02-9 371.02-7.75L371.02-7.75Q371.02-6.85 370.47-6 369.92-5.15 369.22-4.75L369.22-4.75Q369.72-3.95 370.87-3.25 372.02-2.55 374.17-2.55ZM430.82-27.35L430.82-27.35Q430.82-25.45 429.94-23.8 429.07-22.15 427.57-21.05 426.07-19.95 424.12-19.7L424.12-19.7 424.12-19.5Q428.02-18.7 430.27-16.2 432.52-13.7 432.52-10.05L432.52-10.05Q432.52-7.25 431.04-4.88 429.57-2.5 427.32-1.35L427.32-1.35Q425.92-0.65 423.87-0.33 421.82 0 418.12 0L418.12 0 401.67 0 401.67-2.9 405.87-3.95 405.87-32.05 401.67-33.1 401.67-36 419.97-36Q425.22-36 428.07-33.45L428.07-33.45Q429.37-32.25 430.09-30.65 430.82-29.05 430.82-27.35ZM417.27-16.95L417.27-16.95 412.37-16.95 412.37-3.75 416.37-3.75Q418.67-3.75 420.07-4 421.47-4.25 422.42-4.8L422.42-4.8Q423.77-5.5 424.62-7.03 425.47-8.55 425.47-10.55L425.47-10.55Q425.47-12.3 424.82-13.5 424.17-14.7 423.17-15.5L423.17-15.5Q422.27-16.2 420.87-16.57 419.47-16.95 417.27-16.95ZM417.32-32.35L412.37-32.35 412.37-20.6 417.12-20.6Q420.62-20.6 422.27-22.35L422.27-22.35Q423.02-23.05 423.57-24.13 424.12-25.2 424.12-26.6L424.12-26.6Q424.12-28 423.57-29.1 423.02-30.2 422.27-30.85L422.27-30.85Q420.77-32.35 417.32-32.35L417.32-32.35ZM460.36-12.8L460.36-12.8 442.91-12.8Q442.91-9.4 443.91-7.15L443.91-7.15Q444.71-5.45 446.06-4.53 447.41-3.6 449.41-3.6L449.41-3.6Q451.61-3.6 453.79-4.6 455.96-5.6 457.51-7.6L457.51-7.6 460.21-5.5Q458.46-3 455.49-1.25 452.51 0.5 448.16 0.5L448.16 0.5Q444.51 0.5 441.86-0.98 439.21-2.45 437.81-5.3L437.81-5.3Q437.06-6.85 436.71-8.75 436.36-10.65 436.36-12.85L436.36-12.85Q436.36-19.85 439.59-23.68 442.81-27.5 448.71-27.5L448.71-27.5Q454.16-27.5 457.34-24.33 460.51-21.15 460.51-15.55L460.51-15.55Q460.51-15 460.49-14.48 460.46-13.95 460.36-12.8ZM448.61-24.05L448.61-24.05Q443.46-24.05 442.96-16L442.96-16 453.96-16 453.96-17.3Q453.96-20.55 452.54-22.3 451.11-24.05 448.61-24.05ZM478.76-23.35L478.76-23.35Q478.76-23.35 478.76-23.35 478.76-23.35 478.76-23.35L478.76-23.35Q478.21-23.35 477.51-22.68 476.81-22 476.24-21.1 475.66-20.2 475.41-19.5L475.41-19.5Q474.81-17.8 474.36-16 473.91-14.2 473.91-11.6L473.91-11.6 473.91-3.75 479.31-2.8 479.31 0 463.71 0 463.71-2.8 467.56-3.75 467.56-24 463.71-24.95 463.71-27 472.41-27 473.51-20.4 473.71-20.4Q474.86-23.8 476.81-25.65 478.76-27.5 481.11-27.5L481.11-27.5Q483.06-27.5 484.36-26.28 485.66-25.05 485.66-23L485.66-23Q485.66-21.5 484.76-20.28 483.86-19.05 482.21-19.05L482.21-19.05Q480.21-19.05 479.36-19.98 478.51-20.9 478.51-22L478.51-22Q478.51-22.35 478.54-22.53 478.56-22.7 478.76-23.35ZM487.46-5.9L487.46-5.9Q487.46-10.05 491.26-12.33 495.06-14.6 503.21-15.85L503.21-15.85Q503.01-18.35 502.66-19.7 502.31-21.05 501.76-22L501.76-22Q501.11-23.15 500.16-23.85 499.21-24.55 497.76-24.55L497.76-24.55Q496.71-24.55 495.83-24.15 494.96-23.75 494.66-23.05L494.66-23.05Q495.36-22.7 495.63-21.95 495.91-21.2 495.91-20.65L495.91-20.65Q495.91-19.4 494.81-18.43 493.71-17.45 492.16-17.45L492.16-17.45Q490.61-17.45 489.71-18.48 488.81-19.5 488.81-21.05L488.81-21.05Q488.81-23.1 490.26-24.55 491.71-26 493.96-26.75 496.21-27.5 498.51-27.5L498.51-27.5Q500.86-27.5 502.73-26.83 504.61-26.15 505.76-25.15L505.76-25.15Q509.71-21.65 509.71-14.05L509.71-14.05 509.71-7.55Q509.71-5.1 510.03-4.15 510.36-3.2 511.46-3.2L511.46-3.2 513.71-3.2 513.71-0.95Q509.11 0.5 506.76 0.5L506.76 0.5Q505.11 0.5 504.56-0.6 504.01-1.7 504.01-4.95L504.01-4.95 503.81-4.95Q502.26-2.4 499.71-0.95 497.16 0.5 494.21 0.5L494.21 0.5Q491.06 0.5 489.26-1.2 487.46-2.9 487.46-5.9ZM497.26-3.15L497.26-3.15Q498.31-3.15 499.58-3.85 500.86-4.55 501.81-5.8L501.81-5.8Q502.36-6.5 502.86-7.8 503.36-9.1 503.36-10.9L503.36-10.9Q503.36-11.5 503.31-12.25 503.26-13 503.16-13.65L503.16-13.65Q499.71-12.9 497.73-12.05 495.76-11.2 494.93-10.03 494.11-8.85 494.11-7.15L494.11-7.15Q494.11-5 495.11-4.08 496.11-3.15 497.26-3.15ZM515.31-13.45L515.31-13.45Q515.31-16.75 516.23-19.63 517.16-22.5 518.71-24.25L518.71-24.25Q520.16-25.85 522.16-26.68 524.16-27.5 526.66-27.5L526.66-27.5Q529.01-27.5 530.81-26.65 532.61-25.8 534.06-23.6L534.06-23.6 534.06-35.25 530.21-36.2 530.21-39 540.41-39 540.41-3.75 544.26-2.8 544.26 0 535.01 0.5 534.61-3.6Q533.06-1.3 531.11-0.4 529.16 0.5 526.56 0.5L526.56 0.5Q523.81 0.5 521.93-0.33 520.06-1.15 518.76-2.65L518.76-2.65Q517.21-4.4 516.26-7.23 515.31-10.05 515.31-13.45ZM534.06-13.3L534.06-13.3Q534.06-16.2 533.56-18.35 533.06-20.5 532.36-21.6L532.36-21.6Q531.61-22.8 530.48-23.45 529.36-24.1 527.76-24.1L527.76-24.1Q526.56-24.1 525.31-23.6 524.06-23.1 523.36-21.8L523.36-21.8Q522.71-20.6 522.38-18.5 522.06-16.4 522.06-13.9L522.06-13.9Q522.06-11 522.46-8.85 522.86-6.7 523.46-5.55L523.46-5.55Q524.16-4.3 525.38-3.58 526.61-2.85 528.01-2.85L528.01-2.85Q529.16-2.85 530.36-3.38 531.56-3.9 532.36-5.15L532.36-5.15Q533.16-6.45 533.61-8.58 534.06-10.7 534.06-13.3ZM571.1-12.8L571.1-12.8 553.65-12.8Q553.65-9.4 554.65-7.15L554.65-7.15Q555.45-5.45 556.8-4.53 558.15-3.6 560.15-3.6L560.15-3.6Q562.35-3.6 564.53-4.6 566.7-5.6 568.25-7.6L568.25-7.6 570.95-5.5Q569.2-3 566.23-1.25 563.25 0.5 558.9 0.5L558.9 0.5Q555.25 0.5 552.6-0.98 549.95-2.45 548.55-5.3L548.55-5.3Q547.8-6.85 547.45-8.75 547.1-10.65 547.1-12.85L547.1-12.85Q547.1-19.85 550.33-23.68 553.55-27.5 559.45-27.5L559.45-27.5Q564.9-27.5 568.08-24.33 571.25-21.15 571.25-15.55L571.25-15.55Q571.25-15 571.23-14.48 571.2-13.95 571.1-12.8ZM559.35-24.05L559.35-24.05Q554.2-24.05 553.7-16L553.7-16 564.7-16 564.7-17.3Q564.7-20.55 563.28-22.3 561.85-24.05 559.35-24.05ZM578.4-3.75L578.4-23.25 574.55-24.2 574.55-27 584.75-27 584.75-3.75 588.6-2.8 588.6 0 574.55 0 574.55-2.8 578.4-3.75ZM577.85-34.6L577.85-34.6Q577.85-36.2 578.82-37.2 579.8-38.2 581.55-38.2L581.55-38.2Q583.3-38.2 584.3-37.2 585.3-36.2 585.3-34.6L585.3-34.6Q585.3-33.05 584.32-32.05 583.35-31.05 581.55-31.05L581.55-31.05Q579.75-31.05 578.8-32.02 577.85-33 577.85-34.6ZM606.05-23.35L606.05-23.35Q606.05-23.35 606.05-23.35 606.05-23.35 606.05-23.35L606.05-23.35Q605.5-23.35 604.8-22.68 604.1-22 603.52-21.1 602.95-20.2 602.7-19.5L602.7-19.5Q602.1-17.8 601.65-16 601.2-14.2 601.2-11.6L601.2-11.6 601.2-3.75 606.6-2.8 606.6 0 591 0 591-2.8 594.85-3.75 594.85-24 591-24.95 591-27 599.7-27 600.8-20.4 601-20.4Q602.15-23.8 604.1-25.65 606.05-27.5 608.4-27.5L608.4-27.5Q610.35-27.5 611.65-26.28 612.95-25.05 612.95-23L612.95-23Q612.95-21.5 612.05-20.28 611.15-19.05 609.5-19.05L609.5-19.05Q607.5-19.05 606.65-19.98 605.8-20.9 605.8-22L605.8-22Q605.8-22.35 605.82-22.53 605.85-22.7 606.05-23.35ZM640.89-13.5L640.89-13.5Q640.89-10.3 639.97-7.48 639.04-4.65 637.29-2.75L637.29-2.75Q635.64-1 633.32-0.25 630.99 0.5 627.89 0.5L627.89 0.5Q624.79 0.5 622.47-0.25 620.14-1 618.49-2.75L618.49-2.75Q616.74-4.65 615.82-7.48 614.89-10.3 614.89-13.5L614.89-13.5Q614.89-16.7 615.82-19.55 616.74-22.4 618.49-24.25L618.49-24.25Q620.14-26 622.47-26.75 624.79-27.5 627.89-27.5L627.89-27.5Q630.99-27.5 633.32-26.75 635.64-26 637.29-24.25L637.29-24.25Q639.04-22.4 639.97-19.55 640.89-16.7 640.89-13.5ZM623.34-4.85L623.34-4.85Q624.04-3.85 625.17-3.35 626.29-2.85 627.89-2.85L627.89-2.85Q629.49-2.85 630.64-3.35 631.79-3.85 632.44-4.85L632.44-4.85Q634.04-7.3 634.04-13.5L634.04-13.5Q634.04-16.65 633.64-18.8 633.24-20.95 632.44-22.15L632.44-22.15Q631.79-23.15 630.64-23.65 629.49-24.15 627.89-24.15L627.89-24.15Q626.29-24.15 625.17-23.65 624.04-23.15 623.34-22.15L623.34-22.15Q621.74-19.7 621.74-13.5L621.74-13.5Q621.74-7.3 623.34-4.85ZM654.89-2.55L654.89-2.55Q657.39-2.55 659.17-3.5 660.94-4.45 660.94-6.15L660.94-6.15Q660.94-7.5 659.87-8.4 658.79-9.3 657.17-9.9 655.54-10.5 653.84-11L653.84-11Q651.79-11.65 649.89-12.65 647.99-13.65 646.79-15.33 645.59-17 645.59-19.55L645.59-19.55Q645.59-23.15 648.22-25.33 650.84-27.5 655.64-27.5L655.64-27.5Q660.24-27.5 662.97-25.58 665.69-23.65 665.69-20.6L665.69-20.6Q665.69-18.9 664.77-17.98 663.84-17.05 662.24-17.05L662.24-17.05Q660.64-17.05 659.74-17.82 658.84-18.6 658.84-19.65L658.84-19.65Q658.84-20.5 659.34-21.3 659.84-22.1 660.64-22.45L660.64-22.45Q659.99-23.4 658.79-23.93 657.59-24.45 655.84-24.45L655.84-24.45Q653.54-24.45 652.37-23.48 651.19-22.5 651.19-20.75L651.19-20.75Q651.19-19.45 651.79-18.57 652.39-17.7 653.47-17.15 654.54-16.6 655.99-16.15L655.99-16.15Q657.99-15.55 659.92-14.9 661.84-14.25 663.39-13.3 664.94-12.35 665.87-10.98 666.79-9.6 666.79-7.65L666.79-7.65Q666.79-5.05 665.19-3.23 663.59-1.4 660.87-0.45 658.14 0.5 654.74 0.5L654.74 0.5Q649.99 0.5 647.29-1.28 644.59-3.05 644.59-6L644.59-6Q644.59-8.05 645.74-9.2 646.89-10.35 648.49-10.35L648.49-10.35Q649.69-10.35 650.72-9.68 651.74-9 651.74-7.75L651.74-7.75Q651.74-6.85 651.19-6 650.64-5.15 649.94-4.75L649.94-4.75Q650.44-3.95 651.59-3.25 652.74-2.55 654.89-2.55Z" opacity="1" transform="matrix(1,0,0,1,0,0)" fill="#214001" class="wordmark-text-0" data-fill-palette-color="primary" id="text-0"></path></svg></g></svg></g></svg></g></svg></g><g></g></svg></g></svg></g></svg></g></svg></g><defs></defs></svg><rect width="320" height="360" fill="none" stroke="none" visibility="hidden"></rect></g></svg></g></svg>